<?xml version="1.0" standalone="no"?>
<svg xmlns:xlink="http://www.w3.org/1999/xlink" id="wave" style="transform:rotate(180deg); transition: 0.3s" viewBox="0 0 1440 440" version="1.1" xmlns="http://www.w3.org/2000/svg"><defs><linearGradient id="sw-gradient-0" x1="0" x2="0" y1="1" y2="0"><stop stop-color="rgba(34, 100, 171, 1)" offset="0%"/><stop stop-color="rgba(34, 100, 171, 1)" offset="100%"/></linearGradient></defs><path style="transform:translate(0, 0px); opacity:1" fill="url(#sw-gradient-0)" d="M0,44L120,88C240,132,480,220,720,220C960,220,1200,132,1440,110C1680,88,1920,132,2160,139.3C2400,147,2640,117,2880,132C3120,147,3360,205,3600,227.3C3840,249,4080,235,4320,256.7C4560,279,4800,337,5040,366.7C5280,396,5520,396,5760,344.7C6000,293,6240,191,6480,124.7C6720,59,6960,29,7200,80.7C7440,132,7680,264,7920,315.3C8160,367,8400,337,8640,322.7C8880,308,9120,308,9360,293.3C9600,279,9840,249,10080,264C10320,279,10560,337,10800,330C11040,323,11280,249,11520,190.7C11760,132,12000,88,12240,66C12480,44,12720,44,12960,36.7C13200,29,13440,15,13680,58.7C13920,103,14160,205,14400,212.7C14640,220,14880,132,15120,146.7C15360,161,15600,279,15840,293.3C16080,308,16320,220,16560,183.3C16800,147,17040,161,17160,168.7L17280,176L17280,440L17160,440C17040,440,16800,440,16560,440C16320,440,16080,440,15840,440C15600,440,15360,440,15120,440C14880,440,14640,440,14400,440C14160,440,13920,440,13680,440C13440,440,13200,440,12960,440C12720,440,12480,440,12240,440C12000,440,11760,440,11520,440C11280,440,11040,440,10800,440C10560,440,10320,440,10080,440C9840,440,9600,440,9360,440C9120,440,8880,440,8640,440C8400,440,8160,440,7920,440C7680,440,7440,440,7200,440C6960,440,6720,440,6480,440C6240,440,6000,440,5760,440C5520,440,5280,440,5040,440C4800,440,4560,440,4320,440C4080,440,3840,440,3600,440C3360,440,3120,440,2880,440C2640,440,2400,440,2160,440C1920,440,1680,440,1440,440C1200,440,960,440,720,440C480,440,240,440,120,440L0,440Z"/></svg>